# xmcd CD database file
#
# Track frame offsets:
#	150
#	14237
#	30690
#	46602
#	59295
#	77135
#	100147
#	115837
#	126695
#	144132
#	161450
#	173145
#	195295
#	212725
#	224977
#	245862
#	262020
#	276355
#	294995
#
# Disc length: 4026 seconds
#
# Revision: 0
# Processed by: cddbd v1.5.1PL0 Copyright (c) Steve Scherf et al.
# Submitted via: CDex 1.51
#
DISCID=250fb813
DTITLE=Noel Coward Sings Noel Coward - Noel Coward
DYEAR=1989
DGENRE=Jazz
TTITLE0=I Like America
TTITLE1=Louisa
TTITLE2=Half-Caste Woman
TTITLE3=I Went To A Marvelous Party
TTITLE4=Why Must The Show Go On
TTITLE5=New York Medley: Mad About The Boy - Let's Say Goodbye - Teach Me To Dance Like Grandma etc.
TTITLE6=What's Going To Happen To The Tots
TTITLE7=Sail Away
TTITLE8=I Wonder What Happened To Him (Indian Army Officer)
TTITLE9=Uncle Harry
TTITLE10=Loch Lomond
TTITLE11=A Bar On The Piccola Marina
TTITLE12=Nina (Includes "Begin The Beguine")
TTITLE13=Mad Dogs And Englishmen
TTITLE14=Matelot
TTITLE15=Alice Is At It Again
TTITLE16=A Room With A View
TTITLE17=Let's Do It
TTITLE18=I'll See You Again - The Party's Over Now
EXTD=YEAR: 1989
EXTT0=
EXTT1=
EXTT2=
EXTT3=
EXTT4=
EXTT5=
EXTT6=
EXTT7=
EXTT8=
EXTT9=
EXTT10=
EXTT11=
EXTT12=
EXTT13=
EXTT14=
EXTT15=
EXTT16=
EXTT17=
EXTT18=
PLAYORDER=
